# Blender 4.1.1
# www.blender.org
mtllib entry_sm.mtl
o entry_sm
v 5.710585 -0.021194 7.963267
v 0.975166 -0.021194 7.963268
v 6.084799 -0.021194 8.188788
v 0.600952 -0.021194 8.188788
v 3.873444 3.696609 7.963267
v 5.710585 1.859469 7.963267
v 4.460061 3.603699 7.963267
v 4.962687 3.347598 7.963267
v 5.361573 2.948711 7.963267
v 5.617674 2.446085 7.963267
v 0.975166 1.859469 7.963267
v 2.812306 3.696609 7.963267
v 1.068077 2.446086 7.963267
v 1.324178 2.948712 7.963267
v 1.723064 3.347598 7.963267
v 2.225690 3.603699 7.963267
v 5.710585 1.859469 8.188788
v 3.873444 3.696609 8.188788
v 5.617674 2.446086 8.188788
v 5.361573 2.948711 8.188788
v 4.962687 3.347598 8.188788
v 4.460061 3.603699 8.188788
v 2.812306 3.696609 8.188788
v 0.975166 1.859469 8.188788
v 2.225690 3.603698 8.188788
v 1.723064 3.347598 8.188788
v 1.324178 2.948711 8.188788
v 1.068077 2.446085 8.188788
v 5.978009 2.563166 8.188788
v 6.084799 1.888920 8.188788
v 6.084799 1.888920 7.963267
v 5.978009 2.563165 7.963267
v 5.668093 3.171411 8.188788
v 5.668093 3.171411 7.963267
v 5.185386 3.654117 8.188788
v 5.185386 3.654117 7.963267
v 4.577141 3.964034 8.188788
v 4.577141 3.964034 7.963267
v 3.902895 4.070824 8.188788
v 3.902895 4.070824 7.963267
v 0.707742 2.563166 7.963267
v 0.600952 1.888920 7.963267
v 0.600952 1.888920 8.188788
v 0.707742 2.563165 8.188788
v 1.017658 3.171411 7.963267
v 1.017658 3.171411 8.188788
v 1.500364 3.654117 7.963267
v 1.500364 3.654117 8.188788
v 2.108610 3.964034 7.963267
v 2.108610 3.964034 8.188788
v 2.782855 4.070824 7.963267
v 2.782855 4.070824 8.188788
v 5.710585 -0.021194 8.188788
v 6.084799 -0.021194 7.963267
v 0.600952 -0.021194 7.963268
v 0.975166 -0.021194 8.188788
vn 0.9877 -0.1564 -0.0000
vn -1.0000 -0.0000 -0.0000
vn -0.0000 1.0000 -0.0000
vn 1.0000 -0.0000 -0.0000
vn 0.9877 0.1564 -0.0000
vn 0.8910 0.4540 -0.0000
vn 0.7071 0.7071 -0.0000
vn 0.4540 0.8910 -0.0000
vn 0.1564 0.9877 -0.0000
vn -0.9877 0.1564 -0.0000
vn -0.8910 0.4540 -0.0000
vn -0.7071 0.7071 -0.0000
vn -0.4540 0.8910 -0.0000
vn -0.1564 0.9877 -0.0000
vn -0.0000 -0.0000 1.0000
vn -0.0000 -0.0000 -1.0000
vn 0.8910 -0.4540 -0.0000
vn 0.7071 -0.7071 -0.0000
vn 0.4540 -0.8910 -0.0000
vn 0.1564 -0.9877 -0.0000
vn -0.0000 -1.0000 -0.0000
vn -0.1564 -0.9877 -0.0000
vn -0.4540 -0.8910 -0.0000
vn -0.7071 -0.7071 -0.0000
vn -0.8910 -0.4540 -0.0000
vn -0.9877 -0.1564 -0.0000
vt 0.513449 0.742674
vt 0.514214 0.750547
vt 0.510368 0.743069
vt 0.510368 0.717432
vt 0.528330 0.772354
vt 0.537551 0.772354
vt 0.513449 0.717432
vt 0.555513 0.743069
vt 0.554634 0.752119
vt 0.552083 0.760282
vt 0.548109 0.766761
vt 0.543102 0.770921
vt 0.511247 0.752119
vt 0.513798 0.760282
vt 0.517772 0.766761
vt 0.522780 0.770921
vt 0.555513 0.717432
vt 0.551668 0.750547
vt 0.552433 0.742674
vt 0.549559 0.757293
vt 0.546276 0.762647
vt 0.542138 0.766085
vt 0.537308 0.767332
vt 0.516322 0.757293
vt 0.519606 0.762647
vt 0.523743 0.766085
vt 0.528573 0.767332
vt 0.552433 0.717432
s 0
usemtl m_texture
f 11/1/1 28/2/1 24/1/1
f 43/3/2 55/4/2 4/4/2
f 51/5/3 39/6/3 40/6/3
f 11/1/4 56/7/4 2/7/4
f 30/8/5 32/9/5 29/9/5
f 29/9/6 34/10/6 33/10/6
f 33/10/7 36/11/7 35/11/7
f 35/11/8 38/12/8 37/12/8
f 38/12/9 39/6/9 37/12/9
f 42/3/10 44/13/10 41/13/10
f 41/13/11 46/14/11 45/14/11
f 45/14/12 48/15/12 47/15/12
f 47/15/13 50/16/13 49/16/13
f 50/16/14 51/5/14 49/16/14
f 3/17/4 31/8/4 30/8/4
f 19/18/15 30/8/15 29/9/15
f 10/18/16 31/8/16 6/19/16
f 19/18/15 33/10/15 20/20/15
f 10/18/16 34/10/16 32/9/16
f 20/20/15 35/11/15 21/21/15
f 8/21/16 34/10/16 9/20/16
f 22/22/15 35/11/15 37/12/15
f 7/22/16 36/11/16 8/21/16
f 22/22/15 39/6/15 18/23/15
f 7/22/16 40/6/16 38/12/16
f 13/2/16 42/3/16 41/13/16
f 28/2/15 43/3/15 24/1/15
f 13/2/16 45/14/16 14/24/16
f 28/2/15 46/14/15 44/13/15
f 14/24/16 47/15/16 15/25/16
f 27/24/15 48/15/15 46/14/15
f 16/26/16 47/15/16 49/16/16
f 25/26/15 48/15/15 26/25/15
f 16/26/16 51/5/16 12/27/16
f 25/26/15 52/5/15 50/16/15
f 17/19/15 3/17/15 30/8/15
f 6/19/16 54/17/16 1/28/16
f 12/27/16 40/6/16 5/23/16
f 18/23/15 52/5/15 23/27/15
f 11/1/16 55/4/16 42/3/16
f 24/1/15 4/4/15 56/7/15
f 13/2/17 27/24/17 28/2/17
f 14/24/18 26/25/18 27/24/18
f 15/25/19 25/26/19 26/25/19
f 16/26/20 23/27/20 25/26/20
f 5/23/21 23/27/21 12/27/21
f 7/22/22 18/23/22 5/23/22
f 8/21/23 22/22/23 7/22/23
f 9/20/24 21/21/24 8/21/24
f 9/20/25 19/18/25 20/20/25
f 10/18/26 17/19/26 19/18/26
f 1/28/2 17/19/2 6/19/2
f 11/1/1 13/2/1 28/2/1
f 43/3/2 42/3/2 55/4/2
f 51/5/3 52/5/3 39/6/3
f 11/1/4 24/1/4 56/7/4
f 30/8/5 31/8/5 32/9/5
f 29/9/6 32/9/6 34/10/6
f 33/10/7 34/10/7 36/11/7
f 35/11/8 36/11/8 38/12/8
f 38/12/9 40/6/9 39/6/9
f 42/3/10 43/3/10 44/13/10
f 41/13/11 44/13/11 46/14/11
f 45/14/12 46/14/12 48/15/12
f 47/15/13 48/15/13 50/16/13
f 50/16/14 52/5/14 51/5/14
f 3/17/4 54/17/4 31/8/4
f 19/18/15 17/19/15 30/8/15
f 10/18/16 32/9/16 31/8/16
f 19/18/15 29/9/15 33/10/15
f 10/18/16 9/20/16 34/10/16
f 20/20/15 33/10/15 35/11/15
f 8/21/16 36/11/16 34/10/16
f 22/22/15 21/21/15 35/11/15
f 7/22/16 38/12/16 36/11/16
f 22/22/15 37/12/15 39/6/15
f 7/22/16 5/23/16 40/6/16
f 13/2/16 11/1/16 42/3/16
f 28/2/15 44/13/15 43/3/15
f 13/2/16 41/13/16 45/14/16
f 28/2/15 27/24/15 46/14/15
f 14/24/16 45/14/16 47/15/16
f 27/24/15 26/25/15 48/15/15
f 16/26/16 15/25/16 47/15/16
f 25/26/15 50/16/15 48/15/15
f 16/26/16 49/16/16 51/5/16
f 25/26/15 23/27/15 52/5/15
f 17/19/15 53/28/15 3/17/15
f 6/19/16 31/8/16 54/17/16
f 12/27/16 51/5/16 40/6/16
f 18/23/15 39/6/15 52/5/15
f 11/1/16 2/7/16 55/4/16
f 24/1/15 43/3/15 4/4/15
f 13/2/17 14/24/17 27/24/17
f 14/24/18 15/25/18 26/25/18
f 15/25/19 16/26/19 25/26/19
f 16/26/20 12/27/20 23/27/20
f 5/23/21 18/23/21 23/27/21
f 7/22/22 22/22/22 18/23/22
f 8/21/23 21/21/23 22/22/23
f 9/20/24 20/20/24 21/21/24
f 9/20/25 10/18/25 19/18/25
f 10/18/26 6/19/26 17/19/26
f 1/28/2 53/28/2 17/19/2
