# Blender 4.1.1
# www.blender.org
mtllib hay_sm.mtl
o hay_sm
v 5.720767 -0.081415 2.143710
v 5.720767 0.775571 2.143710
v 5.720767 -0.081415 1.103697
v 5.720767 0.775571 1.103697
v 7.477194 -0.081415 2.143710
v 7.477194 0.775571 2.143710
v 7.477194 -0.081415 1.103697
v 7.477194 0.775571 1.103697
v 7.196571 0.790990 1.088277
v 7.330493 0.790990 1.088277
v 7.330493 0.790990 2.159130
v 7.196571 0.790990 2.159130
v 6.001390 0.790990 2.159130
v 5.867468 0.790990 2.159130
v 5.867468 0.790990 1.088277
v 6.001390 0.790990 1.088277
v 5.867468 -0.081415 1.103697
v 6.001390 -0.081415 1.103697
v 7.196571 -0.081415 1.103697
v 7.330493 -0.081415 1.103697
v 7.330493 0.775571 1.103697
v 7.196571 0.775571 1.103697
v 6.001390 0.775571 1.103697
v 5.867468 0.775571 1.103697
v 7.330493 -0.081415 2.143710
v 7.196571 -0.081415 2.143710
v 6.001390 -0.081415 2.143710
v 5.867468 -0.081415 2.143710
v 5.867468 0.775571 2.143710
v 6.001390 0.775571 2.143710
v 7.196571 0.775571 2.143710
v 7.330493 0.775571 2.143710
v 7.196571 -0.096835 1.088277
v 7.330493 -0.096835 1.088277
v 7.330493 -0.096835 2.159130
v 7.196571 -0.096835 2.159130
v 6.001390 -0.096835 2.159130
v 5.867468 -0.096835 2.159130
v 5.867468 -0.096835 1.088277
v 6.001390 -0.096835 1.088277
vn -1.0000 -0.0000 -0.0000
vn -0.0000 1.0000 -0.0000
vn 1.0000 -0.0000 -0.0000
vn -0.0000 -1.0000 -0.0000
vn -0.0000 -0.0000 1.0000
vn -0.0000 -0.0000 -1.0000
vt 0.765333 0.769578
vt 0.765333 0.719103
vt 0.768426 0.769578
vt 0.802358 0.769578
vt 0.802358 0.719103
vt 0.799266 0.719103
vt 0.768426 0.719103
vt 0.771249 0.719103
vt 0.796443 0.769578
vt 0.771249 0.769578
vt 0.658921 0.833236
vt 0.661744 0.833236
vt 0.799266 0.769578
vt 0.796443 0.719103
vt 0.661744 0.781853
vt 0.661744 0.832328
vt 0.661744 0.780945
vt 0.658921 0.832328
vt 0.658921 0.780945
vt 0.658921 0.781853
vt 0.659422 0.832715
vt 0.659422 0.833623
vt 0.659422 0.781332
vt 0.659422 0.782240
vt 0.662245 0.782240
vt 0.662245 0.833623
vt 0.662245 0.832715
vt 0.662245 0.781332
s 0
usemtl m_texture
f 2/1/1 3/2/1 1/2/1
f 4/1/2 29/3/2 24/3/2
f 8/4/3 5/5/3 7/5/3
f 7/5/4 25/6/4 20/6/4
f 29/3/5 1/2/5 28/7/5
f 27/8/5 31/9/5 30/10/5
f 30/10/2 22/9/2 23/10/2
f 14/11/2 16/12/2 15/11/2
f 21/13/6 7/5/6 20/6/6
f 21/13/2 6/4/2 8/4/2
f 17/7/4 1/2/4 3/2/4
f 6/4/5 25/6/5 5/5/5
f 4/1/6 17/7/6 3/2/6
f 26/14/4 18/8/4 19/14/4
f 18/15/3 16/12/3 23/16/3
f 27/15/3 40/17/3 18/15/3
f 24/18/1 39/19/1 17/20/1
f 31/21/1 9/22/1 22/21/1
f 22/21/1 33/23/1 19/24/1
f 17/20/1 38/19/1 28/20/1
f 20/25/3 10/26/3 21/27/3
f 21/27/3 11/26/3 32/27/3
f 19/14/6 23/10/6 22/9/6
f 10/26/2 12/22/2 11/26/2
f 35/28/4 33/23/4 34/28/4
f 39/19/4 37/17/4 38/19/4
f 38/19/5 13/12/5 14/11/5
f 11/26/5 36/23/5 35/28/5
f 34/28/6 9/22/6 10/26/6
f 15/11/6 40/17/6 39/19/6
f 29/18/1 15/11/1 24/18/1
f 28/20/1 14/11/1 29/18/1
f 25/25/3 34/28/3 20/25/3
f 30/16/3 37/17/3 27/15/3
f 23/16/3 13/12/3 30/16/3
f 32/27/3 35/28/3 25/25/3
f 19/24/1 36/23/1 26/24/1
f 26/24/1 12/22/1 31/21/1
f 2/1/1 4/1/1 3/2/1
f 4/1/2 2/1/2 29/3/2
f 8/4/3 6/4/3 5/5/3
f 7/5/4 5/5/4 25/6/4
f 29/3/5 2/1/5 1/2/5
f 27/8/5 26/14/5 31/9/5
f 30/10/2 31/9/2 22/9/2
f 14/11/2 13/12/2 16/12/2
f 21/13/6 8/4/6 7/5/6
f 21/13/2 32/13/2 6/4/2
f 17/7/4 28/7/4 1/2/4
f 6/4/5 32/13/5 25/6/5
f 4/1/6 24/3/6 17/7/6
f 26/14/4 27/8/4 18/8/4
f 18/15/3 40/17/3 16/12/3
f 27/15/3 37/17/3 40/17/3
f 24/18/1 15/11/1 39/19/1
f 31/21/1 12/22/1 9/22/1
f 22/21/1 9/22/1 33/23/1
f 17/20/1 39/19/1 38/19/1
f 20/25/3 34/28/3 10/26/3
f 21/27/3 10/26/3 11/26/3
f 19/14/6 18/8/6 23/10/6
f 10/26/2 9/22/2 12/22/2
f 35/28/4 36/23/4 33/23/4
f 39/19/4 40/17/4 37/17/4
f 38/19/5 37/17/5 13/12/5
f 11/26/5 12/22/5 36/23/5
f 34/28/6 33/23/6 9/22/6
f 15/11/6 16/12/6 40/17/6
f 29/18/1 14/11/1 15/11/1
f 28/20/1 38/19/1 14/11/1
f 25/25/3 35/28/3 34/28/3
f 30/16/3 13/12/3 37/17/3
f 23/16/3 16/12/3 13/12/3
f 32/27/3 11/26/3 35/28/3
f 19/24/1 33/23/1 36/23/1
f 26/24/1 36/23/1 12/22/1
