# Blender 4.1.1
# www.blender.org
mtllib terrain_sm.mtl
o terrain_sm
v -10.204396 0.000000 9.406397
v 8.608397 0.000000 9.406397
v -10.204396 0.000000 -9.744492
v 8.608397 0.000000 -9.744492
v -10.204396 -1.184514 -9.744492
v -10.204396 -1.184514 9.406397
v 8.608397 -1.184514 9.406397
v 8.608397 -1.184514 -9.744492
vn -0.0000 1.0000 -0.0000
vn -0.0000 -1.0000 -0.0000
vn -0.0000 -0.0000 -1.0000
vn -0.0000 -0.0000 1.0000
vn 1.0000 -0.0000 -0.0000
vn -1.0000 -0.0000 -0.0000
vt 0.511756 0.900854
vt 0.551182 0.840205
vt 0.551182 0.900854
vt 0.618924 0.706001
vt 0.570595 0.706001
vt 0.618924 0.657862
vt 0.570595 0.657862
vt 0.511756 0.840205
s 0
usemtl m_texture
f 2/1/1 3/2/1 1/3/1
f 5/4/2 7/5/2 6/4/2
f 8/5/3 3/6/3 4/7/3
f 6/4/4 2/7/4 1/6/4
f 7/5/5 4/7/5 2/7/5
f 5/4/6 1/6/6 3/6/6
f 2/1/1 4/8/1 3/2/1
f 5/4/2 8/5/2 7/5/2
f 8/5/3 5/4/3 3/6/3
f 6/4/4 7/5/4 2/7/4
f 7/5/5 8/5/5 4/7/5
f 5/4/6 6/4/6 1/6/6
