# Blender 4.1.1
# www.blender.org
mtllib tree_sm.mtl
o tree_sm
v -6.311725 -0.327102 1.554423
v -6.311725 -0.327102 1.054423
v -5.811733 -0.324161 1.054423
v -5.811733 -0.324161 1.554423
v -6.321078 1.304888 1.554423
v -6.321078 1.304888 1.054423
v -5.821710 1.330006 1.054423
v -5.821710 1.330006 1.554423
v -7.948039 3.844284 1.554423
v -7.948039 3.844284 1.054423
v -7.589621 4.192905 1.054423
v -7.589621 4.192905 1.554423
v -4.790762 3.000451 -0.195627
v -4.585076 2.973423 0.259305
v -4.752310 3.433248 0.362234
v -4.957995 3.460276 -0.092698
v -8.257620 4.597563 1.486520
v -8.257620 4.597563 1.122326
v -7.931031 4.758737 1.122326
v -7.931031 4.758737 1.486520
v -4.074017 3.749147 -0.085734
v -4.021514 3.693644 0.175941
v -4.201337 3.883743 0.252341
v -4.253840 3.939246 -0.009334
v -6.389836 4.526386 1.104507
v -6.098529 4.526386 1.115746
v -6.109760 4.537193 1.406853
v -6.401068 4.537193 1.395614
v -6.411196 2.475860 1.533243
v -6.411196 2.475860 1.075603
v -5.955604 2.519103 1.075603
v -5.955604 2.519103 1.533243
v -6.422593 2.875067 1.487200
v -6.422593 2.875067 1.121647
v -6.032332 2.924908 1.088798
v -6.059747 2.949258 1.482388
v -6.611725 3.180238 1.494027
v -6.620870 3.187833 1.101504
v -6.416943 3.557473 1.070954
v -6.448537 3.567985 1.503437
v -6.208558 3.090175 0.976415
v -5.891629 3.025821 1.273045
v -5.920720 3.403556 1.244459
v -6.114835 3.372566 1.005531
v -5.846413 2.988256 0.673732
v -5.555467 2.988256 1.026393
v -5.555467 3.445442 1.026393
v -5.846413 3.445442 0.673732
v -5.548601 2.981295 0.419011
v -5.248795 2.981295 0.782412
v -5.248795 3.452404 0.782412
v -5.548601 3.452404 0.419011
v -5.242697 2.974144 0.157370
v -4.933789 2.974144 0.531803
v -4.933789 3.459555 0.531803
v -5.242697 3.459555 0.157370
v -8.138377 4.286795 1.517121
v -8.138377 4.286795 1.091726
v -7.756907 4.475053 1.091726
v -7.756907 4.475053 1.517121
v -6.095277 3.605203 1.119377
v -6.072385 3.565416 1.449693
v -6.420345 3.946129 1.093934
v -6.067298 3.946128 1.107556
v -6.080910 3.959226 1.460360
v -6.433957 3.959227 1.446739
vn -0.1997 -0.4039 -0.8927
vn -0.1998 -0.4040 -0.8927
vn 0.0158 -0.0126 0.9998
vn 0.7968 0.0705 0.6001
vn -0.0000 -0.0000 1.0000
vn 0.5017 -0.8605 0.0882
vn 1.0000 0.0060 -0.0000
vn -0.0000 -0.0000 -1.0000
vn -0.8473 -0.5311 0.0049
vn -0.8373 -0.1253 -0.5322
vn -0.2199 0.0983 -0.9706
vn 0.4874 -0.0720 -0.8702
vn 0.1407 -0.9874 0.0725
vn 0.1406 -0.9874 0.0725
vn 0.5515 0.0477 0.8328
vn 0.0733 0.0122 0.9972
vn 0.0709 0.4336 -0.8983
vn 0.8054 0.5117 -0.2991
vn 0.8054 0.5117 -0.2992
vn -1.0000 -0.0057 -0.0000
vn -0.9971 -0.0767 -0.0000
vn -0.0012 0.0178 -0.9998
vn 0.9937 0.1119 -0.0000
vn -0.0012 0.0178 0.9998
vn -0.9996 -0.0285 -0.0000
vn -0.0462 0.0683 -0.9966
vn 0.9768 0.2125 0.0254
vn -0.0103 0.1149 0.9933
vn -0.4442 -0.8959 -0.0031
vn 0.0025 -0.0444 -0.9990
vn 0.4784 0.8781 0.0063
vn 0.0280 -0.0326 0.9991
vn -0.0137 -0.9998 0.0113
vn 0.6226 -0.0000 0.7826
vn -0.0137 0.9998 0.0113
vn -0.6500 -0.0000 -0.7599
vn 0.0044 -0.9994 -0.0353
vn 0.6410 0.0299 0.7670
vn 0.0540 0.9985 -0.0009
vn -0.6326 -0.0276 -0.7740
vn -0.9186 -0.3951 -0.0000
vn -0.0548 0.0754 -0.9956
vn 0.8602 0.5100 -0.0000
vn -0.0548 0.0755 0.9956
vn -0.9336 -0.3582 -0.0000
vn -0.0407 0.0824 -0.9958
vn 0.8523 0.5231 -0.0000
vn -0.0407 0.0824 0.9958
vn 0.7149 -0.6172 -0.3287
vn 0.2827 -0.1119 0.9526
vn 0.2827 -0.1119 0.9527
vn -0.5651 0.7714 0.2924
vn -0.0680 0.2315 -0.9705
vn 0.0907 0.0122 -0.9958
vn 0.9995 -0.0265 -0.0146
vn 0.0550 0.0580 0.9968
vn 0.0551 0.0580 0.9968
vn -0.9983 0.0118 -0.0578
vn 0.9979 0.0532 0.0365
vn -0.0384 0.0902 0.9952
vn -0.9978 0.0532 -0.0405
vn 0.0385 0.0162 -0.9991
vn -0.1310 0.9898 0.0556
vn -0.1997 -0.4040 -0.8927
vn -0.2200 0.0983 -0.9705
vn 0.5515 0.0478 0.8328
vn 0.0733 0.0121 0.9972
vn -0.0106 0.1145 0.9934
vn 0.6410 0.0299 0.7669
vn 0.0539 0.9985 -0.0009
vn -0.6326 -0.0277 -0.7740
vn -0.0548 0.0755 -0.9956
vn -0.0548 0.0754 0.9956
vn 0.2827 -0.1118 0.9527
vn -0.5651 0.7714 0.2925
vn 0.0551 0.0581 0.9968
vt 0.528515 0.692619
vt 0.526091 0.690183
vt 0.523846 0.693725
vt 0.530200 0.691023
vt 0.523950 0.693639
vt 0.531774 0.696167
vt 0.532103 0.691890
vt 0.533008 0.653962
vt 0.527241 0.672406
vt 0.527347 0.653928
vt 0.530510 0.690748
vt 0.532895 0.672690
vt 0.532615 0.691465
vt 0.529576 0.695816
vt 0.532615 0.696641
vt 0.526155 0.697910
vt 0.535909 0.691465
vt 0.535909 0.696641
vt 0.530056 0.698000
vt 0.529797 0.698450
vt 0.526220 0.685664
vt 0.531379 0.686153
vt 0.508820 0.701157
vt 0.512878 0.705104
vt 0.525798 0.698029
vt 0.539381 0.691386
vt 0.535987 0.691386
vt 0.539381 0.696720
vt 0.535987 0.696720
vt 0.539450 0.691305
vt 0.542948 0.696801
vt 0.542948 0.691305
vt 0.539450 0.696801
vt 0.546896 0.691297
vt 0.544567 0.691603
vt 0.545002 0.696503
vt 0.542674 0.696809
vt 0.506665 0.706167
vt 0.510984 0.708299
vt 0.505315 0.709686
vt 0.509013 0.711510
vt 0.552682 0.700080
vt 0.553277 0.699451
vt 0.551241 0.701604
vt 0.550646 0.702232
vt 0.526117 0.702310
vt 0.529960 0.702458
vt 0.530114 0.702310
vt 0.525963 0.702458
vt 0.529633 0.709002
vt 0.529760 0.708880
vt 0.526335 0.709002
vt 0.526462 0.708880
s 0
usemtl m_texture
f 41/1/1 34/2/2 38/3/2
f 36/4/3 37/5/3 33/2/3
f 43/6/4 36/4/4 42/7/4
f 4/8/5 5/9/5 1/10/5
f 35/11/6 42/7/6 36/4/6
f 7/12/7 4/8/7 3/8/7
f 6/9/8 3/8/8 2/10/8
f 37/5/9 34/2/9 33/2/9
f 45/13/10 44/14/10 48/15/10
f 41/1/11 39/16/11 44/14/11
f 44/14/12 35/11/12 41/1/12
f 46/17/13 35/11/14 45/13/13
f 47/18/15 42/7/15 46/17/15
f 62/19/16 37/5/16 36/4/16
f 61/20/17 44/14/17 39/16/17
f 61/20/18 43/6/19 44/14/18
f 5/9/20 2/10/20 1/10/20
f 5/9/21 30/21/21 6/9/21
f 6/9/22 31/22/22 7/12/22
f 7/12/23 32/22/23 8/12/23
f 5/9/24 32/22/24 29/21/24
f 34/2/25 29/21/25 33/2/25
f 35/11/26 30/21/26 34/2/26
f 36/4/27 31/22/27 35/11/27
f 33/2/28 32/22/28 36/4/28
f 38/3/29 9/23/29 10/23/29
f 38/3/30 11/24/30 39/16/30
f 40/25/31 11/24/31 12/24/31
f 37/5/32 12/24/32 9/23/32
f 50/26/33 45/13/33 49/27/33
f 50/26/34 47/18/34 46/17/34
f 51/28/35 48/15/35 47/18/35
f 49/27/36 48/15/36 52/29/36
f 53/30/33 50/26/33 49/27/33
f 55/31/34 50/26/34 54/32/34
f 56/33/35 51/28/35 55/31/35
f 53/30/36 52/29/36 56/33/36
f 14/34/37 53/30/37 13/35/37
f 15/36/38 54/32/38 14/34/38
f 15/36/39 56/33/39 55/31/39
f 16/37/40 53/30/40 56/33/40
f 58/38/41 9/23/41 57/38/41
f 58/38/42 11/24/42 10/23/42
f 60/39/43 11/24/43 59/39/43
f 57/38/44 12/24/44 60/39/44
f 18/40/45 57/38/45 17/40/45
f 19/41/46 58/38/46 18/40/46
f 19/41/47 60/39/47 59/39/47
f 20/41/48 57/38/48 60/39/48
f 14/34/49 21/42/49 22/43/49
f 15/36/50 22/43/51 23/44/50
f 15/36/52 24/45/52 16/37/52
f 16/37/53 21/42/53 13/35/53
f 63/46/54 61/20/54 39/16/54
f 65/47/55 61/20/55 64/48/55
f 66/49/56 62/19/57 65/47/56
f 66/49/58 39/16/58 40/25/58
f 27/50/59 64/48/59 26/51/59
f 28/52/60 65/47/60 27/50/60
f 25/53/61 66/49/61 28/52/61
f 25/53/62 64/48/62 63/46/62
f 47/18/63 44/14/63 43/6/63
f 41/1/64 35/11/64 34/2/64
f 43/6/4 62/19/4 36/4/4
f 4/8/5 8/12/5 5/9/5
f 7/12/7 8/12/7 4/8/7
f 6/9/8 7/12/8 3/8/8
f 37/5/9 38/3/9 34/2/9
f 45/13/10 35/11/10 44/14/10
f 41/1/65 38/3/65 39/16/65
f 46/17/13 42/7/13 35/11/13
f 47/18/66 43/6/66 42/7/66
f 62/19/67 40/25/67 37/5/67
f 61/20/18 62/19/18 43/6/18
f 5/9/20 6/9/20 2/10/20
f 5/9/21 29/21/21 30/21/21
f 6/9/22 30/21/22 31/22/22
f 7/12/23 31/22/23 32/22/23
f 5/9/24 8/12/24 32/22/24
f 34/2/25 30/21/25 29/21/25
f 35/11/26 31/22/26 30/21/26
f 36/4/27 32/22/27 31/22/27
f 33/2/68 29/21/68 32/22/68
f 38/3/29 37/5/29 9/23/29
f 38/3/30 10/23/30 11/24/30
f 40/25/31 39/16/31 11/24/31
f 37/5/32 40/25/32 12/24/32
f 50/26/33 46/17/33 45/13/33
f 50/26/34 51/28/34 47/18/34
f 51/28/35 52/29/35 48/15/35
f 49/27/36 45/13/36 48/15/36
f 53/30/33 54/32/33 50/26/33
f 55/31/34 51/28/34 50/26/34
f 56/33/35 52/29/35 51/28/35
f 53/30/36 49/27/36 52/29/36
f 14/34/37 54/32/37 53/30/37
f 15/36/69 55/31/69 54/32/69
f 15/36/70 16/37/70 56/33/70
f 16/37/71 13/35/71 53/30/71
f 58/38/41 10/23/41 9/23/41
f 58/38/72 59/39/72 11/24/72
f 60/39/43 12/24/43 11/24/43
f 57/38/73 9/23/73 12/24/73
f 18/40/45 58/38/45 57/38/45
f 19/41/46 59/39/46 58/38/46
f 19/41/47 20/41/47 60/39/47
f 20/41/48 17/40/48 57/38/48
f 14/34/49 13/35/49 21/42/49
f 15/36/74 14/34/74 22/43/74
f 15/36/75 23/44/75 24/45/75
f 16/37/53 24/45/53 21/42/53
f 63/46/54 64/48/54 61/20/54
f 65/47/55 62/19/55 61/20/55
f 66/49/76 40/25/76 62/19/76
f 66/49/58 63/46/58 39/16/58
f 27/50/59 65/47/59 64/48/59
f 28/52/60 66/49/60 65/47/60
f 25/53/61 63/46/61 66/49/61
f 25/53/62 26/51/62 64/48/62
f 47/18/63 48/15/63 44/14/63
o foliage_sm
v -3.615860 3.090439 1.255680
v -2.510906 3.934539 2.058466
v -4.037906 3.934538 2.554627
v -4.981654 3.934545 1.255680
v -4.037906 3.934538 -0.043267
v -2.510906 3.934539 0.452894
v -3.193813 5.300354 2.554627
v -4.720813 5.300353 2.058466
v -4.720813 5.300353 0.452894
v -3.193813 5.300354 -0.043267
v -2.250065 5.300347 1.255680
v -3.615860 6.144453 1.255680
v -3.863930 3.318491 2.019176
v -2.966389 3.318491 1.727542
v -3.214457 3.814641 2.491046
v -2.316915 3.814644 1.255680
v -2.966389 3.318491 0.783818
v -4.418653 3.318495 1.255680
v -4.666729 3.814643 2.019179
v -3.863930 3.318491 0.492184
v -4.666729 3.814643 0.492181
v -3.214457 3.814641 0.020314
v -2.163588 4.617446 1.727544
v -2.163588 4.617446 0.783816
v -3.615860 4.617446 2.782686
v -2.718307 4.617446 2.491054
v -5.068131 4.617446 1.727544
v -4.513412 4.617446 2.491054
v -4.513412 4.617446 0.020306
v -5.068131 4.617446 0.783816
v -2.718307 4.617446 0.020306
v -3.615860 4.617446 -0.271327
v -2.564990 5.420249 2.019179
v -4.017262 5.420251 2.491046
v -4.914804 5.420248 1.255680
v -4.017262 5.420251 0.020314
v -2.564990 5.420249 0.492181
v -3.367789 5.916401 2.019176
v -2.813067 5.916397 1.255680
v -4.265330 5.916401 1.727542
v -4.265330 5.916401 0.783818
v -3.367789 5.916401 0.492184
v -8.705286 4.086402 1.255680
v -7.442945 5.050734 2.172814
v -9.187449 5.050734 2.739648
v -10.265623 5.050741 1.255680
v -9.187449 5.050734 -0.228287
v -7.442945 5.050734 0.338546
v -8.223125 6.611094 2.739648
v -9.967628 6.611094 2.172814
v -9.967628 6.611094 0.338546
v -8.223125 6.611094 -0.228287
v -7.144949 6.611087 1.255680
v -8.705286 7.575426 1.255680
v -8.988692 4.346937 2.127928
v -7.963306 4.346937 1.794754
v -8.246709 4.913758 2.667011
v -7.221321 4.913761 1.255680
v -7.963306 4.346937 0.716606
v -9.622429 4.346942 1.255680
v -9.905841 4.913761 2.127931
v -8.988692 4.346937 0.383433
v -9.905841 4.913761 0.383430
v -8.246709 4.913758 -0.155650
v -7.046155 5.830914 1.794756
v -7.046155 5.830914 0.716604
v -8.705286 5.830914 3.000192
v -7.679887 5.830914 2.667019
v -10.364418 5.830914 1.794756
v -9.730686 5.830914 2.667019
v -9.730686 5.830914 -0.155659
v -10.364418 5.830914 0.716604
v -7.679887 5.830914 -0.155659
v -8.705286 5.830914 -0.488832
v -7.504732 6.748067 2.127931
v -9.163864 6.748069 2.667011
v -10.189252 6.748066 1.255680
v -9.163864 6.748069 -0.155650
v -7.504732 6.748067 0.383430
v -8.421881 7.314890 2.127928
v -7.788145 7.314886 1.255680
v -9.447268 7.314890 1.794754
v -9.447268 7.314890 0.716606
v -8.421881 7.314890 0.383433
v -6.221247 3.904176 1.255680
v -5.116293 4.748276 2.058466
v -6.643293 4.748275 2.554627
v -7.587041 4.748282 1.255680
v -6.643293 4.748275 -0.043267
v -5.116293 4.748276 0.452894
v -5.799200 6.114091 2.554627
v -7.326200 6.114090 2.058466
v -7.326200 6.114090 0.452894
v -5.799200 6.114091 -0.043267
v -4.855452 6.114084 1.255680
v -6.221247 6.958189 1.255680
v -6.469317 4.132228 2.019176
v -5.571776 4.132228 1.727543
v -5.819844 4.628378 2.491046
v -4.922301 4.628381 1.255680
v -5.571776 4.132228 0.783818
v -7.024039 4.132232 1.255680
v -7.272116 4.628380 2.019179
v -6.469317 4.132228 0.492184
v -7.272116 4.628380 0.492181
v -5.819844 4.628378 0.020314
v -4.768975 5.431183 1.727544
v -4.768975 5.431183 0.783816
v -6.221247 5.431183 2.782687
v -5.323694 5.431183 2.491054
v -7.673518 5.431183 1.727544
v -7.118799 5.431183 2.491054
v -7.118799 5.431183 0.020306
v -7.673518 5.431183 0.783816
v -5.323694 5.431183 0.020306
v -6.221247 5.431183 -0.271326
v -5.170377 6.233986 2.019179
v -6.622649 6.233988 2.491046
v -7.520191 6.233985 1.255680
v -6.622649 6.233988 0.020314
v -5.170377 6.233986 0.492181
v -5.973176 6.730138 2.019176
v -5.418454 6.730134 1.255680
v -6.870717 6.730137 1.727543
v -6.870717 6.730137 0.783818
v -5.973176 6.730138 0.492184
vn 0.1024 -0.9435 0.3151
vn 0.7002 -0.6617 0.2680
vn -0.2680 -0.9435 0.1947
vn -0.2680 -0.9435 -0.1947
vn 0.1024 -0.9435 -0.3151
vn 0.9050 -0.3304 0.2680
vn 0.0247 -0.3304 0.9435
vn -0.8897 -0.3304 0.3151
vn -0.5746 -0.3304 -0.7488
vn 0.5346 -0.3304 -0.7779
vn 0.8026 -0.1256 0.5831
vn -0.3066 -0.1256 0.9435
vn -0.9921 -0.1256 -0.0000
vn -0.3066 -0.1256 -0.9435
vn 0.8026 -0.1256 -0.5831
vn 0.4089 0.6617 0.6284
vn -0.4713 0.6617 0.5831
vn -0.7002 0.6617 -0.2680
vn 0.0385 0.6617 -0.7488
vn 0.7240 0.6617 -0.1947
vn 0.2680 0.9435 -0.1947
vn 0.4911 0.7947 -0.3568
vn 0.4089 0.6617 -0.6284
vn -0.1024 0.9435 -0.3151
vn -0.1876 0.7947 -0.5773
vn -0.4713 0.6617 -0.5831
vn -0.3313 0.9435 -0.0000
vn -0.6071 0.7947 -0.0000
vn -0.7002 0.6617 0.2680
vn -0.1024 0.9435 0.3151
vn -0.1876 0.7947 0.5773
vn 0.0385 0.6617 0.7488
vn 0.2680 0.9435 0.1947
vn 0.4911 0.7947 0.3568
vn 0.7240 0.6617 0.1947
vn 0.8897 0.3304 -0.3151
vn 0.7947 0.1876 -0.5773
vn 0.5746 0.3304 -0.7488
vn -0.0247 0.3304 -0.9435
vn -0.3035 0.1876 -0.9342
vn -0.5346 0.3304 -0.7779
vn -0.9050 0.3304 -0.2680
vn -0.9822 0.1876 -0.0000
vn -0.9050 0.3304 0.2680
vn -0.5346 0.3304 0.7779
vn -0.3035 0.1876 0.9342
vn -0.0247 0.3304 0.9435
vn 0.5746 0.3304 0.7488
vn 0.7947 0.1876 0.5773
vn 0.8897 0.3304 0.3151
vn 0.3066 0.1256 -0.9435
vn 0.3035 -0.1876 -0.9342
vn 0.0247 -0.3304 -0.9435
vn -0.8026 0.1256 -0.5831
vn -0.7947 -0.1876 -0.5773
vn -0.8897 -0.3304 -0.3151
vn -0.8026 0.1256 0.5831
vn -0.7947 -0.1876 0.5773
vn -0.5746 -0.3304 0.7488
vn 0.3066 0.1256 0.9435
vn 0.3035 -0.1876 0.9342
vn 0.5346 -0.3304 0.7779
vn 0.9921 0.1256 -0.0000
vn 0.9822 -0.1876 -0.0000
vn 0.9050 -0.3304 -0.2680
vn 0.4713 -0.6617 -0.5831
vn 0.1876 -0.7947 -0.5773
vn -0.0385 -0.6617 -0.7488
vn -0.4089 -0.6617 -0.6284
vn -0.4911 -0.7947 -0.3568
vn -0.7240 -0.6617 -0.1947
vn -0.7240 -0.6617 0.1947
vn -0.4911 -0.7947 0.3568
vn -0.4089 -0.6617 0.6284
vn 0.7002 -0.6617 -0.2680
vn 0.6071 -0.7947 -0.0000
vn 0.3313 -0.9435 -0.0000
vn -0.0385 -0.6617 0.7488
vn 0.1876 -0.7947 0.5773
vn 0.4713 -0.6617 0.5831
vt 0.593850 0.842985
vt 0.605992 0.847249
vt 0.589212 0.847249
vt 0.614508 0.858766
vt 0.618135 0.856524
vt 0.578841 0.847249
vt 0.621001 0.871533
vt 0.585960 0.858766
vt 0.601355 0.856524
vt 0.593850 0.871533
vt 0.568315 0.858766
vt 0.574203 0.856524
vt 0.566699 0.871533
vt 0.577070 0.871533
vt 0.610630 0.871533
vt 0.601740 0.884301
vt 0.613497 0.886543
vt 0.598488 0.895819
vt 0.573192 0.884301
vt 0.586345 0.886543
vt 0.581708 0.895819
vt 0.569565 0.886543
vt 0.619385 0.884301
vt 0.608859 0.895818
vt 0.593850 0.900082
vt 0.593739 0.843429
vt 0.605698 0.847629
vt 0.589171 0.847629
vt 0.614085 0.858972
vt 0.617657 0.856765
vt 0.578957 0.847629
vt 0.589171 0.847629
vt 0.620480 0.871547
vt 0.585968 0.858972
vt 0.601130 0.856764
vt 0.593739 0.871547
vt 0.568590 0.858972
vt 0.574389 0.856765
vt 0.566998 0.871547
vt 0.577212 0.871547
vt 0.610266 0.871547
vt 0.601510 0.884121
vt 0.613089 0.886329
vt 0.598307 0.895465
vt 0.573393 0.884121
vt 0.586348 0.886329
vt 0.581780 0.895465
vt 0.569821 0.886329
vt 0.618888 0.884121
vt 0.608521 0.895465
vt 0.593739 0.899664
vt 0.593636 0.841881
vt 0.605968 0.846212
vt 0.588926 0.846212
vt 0.614616 0.857909
vt 0.618300 0.855632
vt 0.578394 0.846212
vt 0.621211 0.870875
vt 0.585623 0.857909
vt 0.601258 0.855632
vt 0.593636 0.870875
vt 0.567704 0.857909
vt 0.573683 0.855632
vt 0.566062 0.870875
vt 0.573683 0.855632
vt 0.576594 0.870875
vt 0.610678 0.870875
vt 0.601650 0.883841
vt 0.613589 0.886118
vt 0.598347 0.895538
vt 0.572657 0.883841
vt 0.586015 0.886118
vt 0.581305 0.895538
vt 0.568973 0.886118
vt 0.619569 0.883841
vt 0.608879 0.895538
vt 0.593636 0.899868
s 0
usemtl m_texture
f 67/54/77 80/55/77 79/56/77
f 68/57/78 80/55/78 82/58/78
f 67/54/79 79/56/79 84/59/79
f 67/54/80 84/59/80 86/56/80
f 67/54/81 86/56/81 83/55/81
f 68/57/82 82/58/82 89/60/82
f 69/61/83 81/62/83 91/63/83
f 70/64/84 85/65/84 93/66/84
f 71/61/85 87/65/85 95/67/85
f 72/57/86 88/62/86 97/68/86
f 68/57/87 89/60/87 92/68/87
f 69/61/88 91/63/88 94/67/88
f 70/64/89 93/66/89 96/66/89
f 71/61/90 95/67/90 98/63/90
f 72/57/91 97/68/91 90/60/91
f 73/69/92 99/70/92 104/71/92
f 74/72/93 100/73/93 106/74/93
f 75/72/94 101/75/94 107/74/94
f 76/69/95 102/73/95 108/71/95
f 77/76/96 103/70/96 105/77/96
f 105/77/97 108/71/97 78/78/97
f 105/77/98 103/70/98 108/71/98
f 103/70/99 76/69/99 108/71/99
f 108/71/100 107/74/100 78/78/100
f 108/71/101 102/73/101 107/74/101
f 102/73/102 75/72/102 107/74/102
f 107/74/103 106/74/103 78/78/103
f 107/74/104 101/75/104 106/74/104
f 101/75/105 74/72/105 106/74/105
f 106/74/106 104/71/106 78/78/106
f 106/74/107 100/73/107 104/71/107
f 100/73/108 73/69/108 104/71/108
f 104/71/109 105/77/109 78/78/109
f 104/71/110 99/70/110 105/77/110
f 99/70/111 77/76/111 105/77/111
f 90/60/112 103/70/112 77/76/112
f 90/60/113 97/68/113 103/70/113
f 97/68/114 76/69/114 103/70/114
f 98/63/115 102/73/115 76/69/115
f 98/63/116 95/67/116 102/73/116
f 95/67/117 75/72/117 102/73/117
f 96/66/118 101/75/118 75/72/118
f 96/66/119 93/66/119 101/75/119
f 93/66/120 74/72/120 101/75/120
f 94/67/121 100/73/121 74/72/121
f 94/67/122 91/63/122 100/73/122
f 91/63/123 73/69/123 100/73/123
f 92/68/124 99/70/124 73/69/124
f 92/68/125 89/60/125 99/70/125
f 89/60/126 77/76/126 99/70/126
f 97/68/127 98/63/127 76/69/127
f 97/68/128 88/62/128 98/63/128
f 88/62/129 71/61/129 98/63/129
f 95/67/130 96/66/130 75/72/130
f 95/67/131 87/65/131 96/66/131
f 87/65/132 70/64/132 96/66/132
f 93/66/133 94/67/133 74/72/133
f 93/66/134 85/65/134 94/67/134
f 85/65/135 69/61/135 94/67/135
f 91/63/136 92/68/136 73/69/136
f 91/63/137 81/62/137 92/68/137
f 81/62/138 68/57/138 92/68/138
f 89/60/139 90/60/139 77/76/139
f 89/60/140 82/58/140 90/60/140
f 82/58/141 72/57/141 90/60/141
f 83/55/142 88/62/142 72/57/142
f 83/55/143 86/56/143 88/62/143
f 86/56/144 71/61/144 88/62/144
f 86/56/145 87/65/145 71/61/145
f 86/56/146 84/59/146 87/65/146
f 84/59/147 70/64/147 87/65/147
f 84/59/148 85/65/148 70/64/148
f 84/59/149 79/56/149 85/65/149
f 79/56/150 69/61/150 85/65/150
f 82/58/151 83/55/151 72/57/151
f 82/58/152 80/55/152 83/55/152
f 80/55/153 67/54/153 83/55/153
f 79/56/154 81/62/154 69/61/154
f 79/56/155 80/55/155 81/62/155
f 80/55/156 68/57/156 81/62/156
f 109/79/77 122/80/77 121/81/77
f 110/82/78 122/80/78 124/83/78
f 109/79/79 121/81/79 126/84/79
f 109/79/80 126/84/80 128/85/80
f 109/79/81 128/85/81 125/80/81
f 110/82/82 124/83/82 131/86/82
f 111/87/83 123/88/83 133/89/83
f 112/90/84 127/91/84 135/92/84
f 113/87/85 129/91/85 137/93/85
f 114/82/86 130/88/86 139/94/86
f 110/82/87 131/86/87 134/94/87
f 111/87/88 133/89/88 136/93/88
f 112/90/89 135/92/89 138/92/89
f 113/87/90 137/93/90 140/89/90
f 114/82/91 139/94/91 132/86/91
f 115/95/92 141/96/92 146/97/92
f 116/98/93 142/99/93 148/100/93
f 117/98/94 143/101/94 149/100/94
f 118/95/95 144/99/95 150/97/95
f 119/102/96 145/96/96 147/103/96
f 147/103/97 150/97/97 120/104/97
f 147/103/98 145/96/98 150/97/98
f 145/96/99 118/95/99 150/97/99
f 150/97/100 149/100/100 120/104/100
f 150/97/101 144/99/101 149/100/101
f 144/99/102 117/98/102 149/100/102
f 149/100/103 148/100/103 120/104/103
f 149/100/104 143/101/104 148/100/104
f 143/101/105 116/98/105 148/100/105
f 148/100/106 146/97/106 120/104/106
f 148/100/107 142/99/107 146/97/107
f 142/99/108 115/95/108 146/97/108
f 146/97/109 147/103/109 120/104/109
f 146/97/110 141/96/110 147/103/110
f 141/96/111 119/102/111 147/103/111
f 132/86/112 145/96/112 119/102/112
f 132/86/113 139/94/113 145/96/113
f 139/94/114 118/95/114 145/96/114
f 140/89/115 144/99/115 118/95/115
f 140/89/116 137/93/116 144/99/116
f 137/93/117 117/98/117 144/99/117
f 138/92/118 143/101/118 117/98/118
f 138/92/119 135/92/119 143/101/119
f 135/92/120 116/98/120 143/101/120
f 136/93/121 142/99/121 116/98/121
f 136/93/122 133/89/122 142/99/122
f 133/89/123 115/95/123 142/99/123
f 134/94/124 141/96/124 115/95/124
f 134/94/125 131/86/125 141/96/125
f 131/86/126 119/102/126 141/96/126
f 139/94/127 140/89/127 118/95/127
f 139/94/128 130/88/128 140/89/128
f 130/88/129 113/87/129 140/89/129
f 137/93/130 138/92/130 117/98/130
f 137/93/131 129/91/131 138/92/131
f 129/91/132 112/90/132 138/92/132
f 135/92/133 136/93/133 116/98/133
f 135/92/134 127/91/134 136/93/134
f 127/91/135 111/87/135 136/93/135
f 133/89/136 134/94/136 115/95/136
f 133/89/137 123/88/137 134/94/137
f 123/88/138 110/82/138 134/94/138
f 131/86/139 132/86/139 119/102/139
f 131/86/140 124/83/140 132/86/140
f 124/83/141 114/82/141 132/86/141
f 125/80/142 130/88/142 114/82/142
f 125/80/143 128/85/143 130/88/143
f 128/85/144 113/87/144 130/88/144
f 128/85/145 129/91/145 113/87/145
f 128/85/146 126/84/146 129/91/146
f 126/84/147 112/90/147 129/91/147
f 126/84/148 127/91/148 112/90/148
f 126/84/149 121/81/149 127/91/149
f 121/81/150 111/87/150 127/91/150
f 124/83/151 125/80/151 114/82/151
f 124/83/152 122/80/152 125/80/152
f 122/80/153 109/79/153 125/80/153
f 121/81/154 123/88/154 111/87/154
f 121/81/155 122/80/155 123/88/155
f 122/80/156 110/82/156 123/88/156
f 151/105/77 164/106/77 163/107/77
f 152/108/78 164/106/78 166/109/78
f 151/105/79 163/107/79 168/110/79
f 151/105/80 168/110/80 170/107/80
f 151/105/81 170/107/81 167/106/81
f 152/108/82 166/109/82 173/111/82
f 153/112/83 165/113/83 175/114/83
f 154/115/84 169/116/84 177/117/84
f 155/112/85 171/118/85 179/119/85
f 156/108/86 172/113/86 181/120/86
f 152/108/87 173/111/87 176/120/87
f 153/112/88 175/114/88 178/119/88
f 154/115/89 177/117/89 180/117/89
f 155/112/90 179/119/90 182/114/90
f 156/108/91 181/120/91 174/111/91
f 157/121/92 183/122/92 188/123/92
f 158/124/93 184/125/93 190/126/93
f 159/124/94 185/127/94 191/126/94
f 160/121/95 186/125/95 192/123/95
f 161/128/96 187/122/96 189/129/96
f 189/129/97 192/123/97 162/130/97
f 189/129/98 187/122/98 192/123/98
f 187/122/99 160/121/99 192/123/99
f 192/123/100 191/126/100 162/130/100
f 192/123/101 186/125/101 191/126/101
f 186/125/102 159/124/102 191/126/102
f 191/126/103 190/126/103 162/130/103
f 191/126/104 185/127/104 190/126/104
f 185/127/105 158/124/105 190/126/105
f 190/126/106 188/123/106 162/130/106
f 190/126/107 184/125/107 188/123/107
f 184/125/108 157/121/108 188/123/108
f 188/123/109 189/129/109 162/130/109
f 188/123/110 183/122/110 189/129/110
f 183/122/111 161/128/111 189/129/111
f 174/111/112 187/122/112 161/128/112
f 174/111/113 181/120/113 187/122/113
f 181/120/114 160/121/114 187/122/114
f 182/114/115 186/125/115 160/121/115
f 182/114/116 179/119/116 186/125/116
f 179/119/117 159/124/117 186/125/117
f 180/117/118 185/127/118 159/124/118
f 180/117/119 177/117/119 185/127/119
f 177/117/120 158/124/120 185/127/120
f 178/119/121 184/125/121 158/124/121
f 178/119/122 175/114/122 184/125/122
f 175/114/123 157/121/123 184/125/123
f 176/120/124 183/122/124 157/121/124
f 176/120/125 173/111/125 183/122/125
f 173/111/126 161/128/126 183/122/126
f 181/120/127 182/114/127 160/121/127
f 181/120/128 172/113/128 182/114/128
f 172/113/129 155/112/129 182/114/129
f 179/119/130 180/117/130 159/124/130
f 179/119/131 171/118/131 180/117/131
f 171/118/132 154/115/132 180/117/132
f 177/117/133 178/119/133 158/124/133
f 177/117/134 169/116/134 178/119/134
f 169/116/135 153/112/135 178/119/135
f 175/114/136 176/120/136 157/121/136
f 175/114/137 165/113/137 176/120/137
f 165/113/138 152/108/138 176/120/138
f 173/111/139 174/111/139 161/128/139
f 173/111/140 166/109/140 174/111/140
f 166/109/141 156/108/141 174/111/141
f 167/106/142 172/113/142 156/108/142
f 167/106/143 170/107/143 172/113/143
f 170/107/144 155/112/144 172/113/144
f 170/107/145 171/118/145 155/112/145
f 170/107/146 168/110/146 171/118/146
f 168/110/147 154/115/147 171/118/147
f 168/110/148 169/116/148 154/115/148
f 168/110/149 163/107/149 169/116/149
f 163/107/150 153/112/150 169/116/150
f 166/109/151 167/106/151 156/108/151
f 166/109/152 164/106/152 167/106/152
f 164/106/153 151/105/153 167/106/153
f 163/107/154 165/113/154 153/112/154
f 163/107/155 164/106/155 165/113/155
f 164/106/156 152/108/156 165/113/156
