# Blender 4.1.1
# www.blender.org
mtllib silo_sm.mtl
o silo_sm
v -3.861934 -0.025774 -7.704200
v -2.681270 -0.025774 -7.469351
v -1.680352 -0.025774 -6.800559
v -1.011560 -0.025774 -5.799641
v -0.776711 -0.025774 -4.618977
v -1.680352 -0.025774 -2.437395
v -3.861934 -0.025774 -1.533754
v -5.042598 -0.025774 -1.768602
v -6.712308 -0.025774 -3.438313
v -6.712308 -0.025774 -5.799641
v -6.043516 -0.025774 -6.800559
v -5.042598 -0.025774 -7.469351
v -3.861934 12.283132 -4.682272
v -3.861934 9.319270 -7.704200
v -3.861934 12.138070 -5.616099
v -3.861934 11.717084 -6.458516
v -3.861934 11.061384 -7.127063
v -3.861934 10.235153 -7.556296
v -3.837711 12.283132 -4.677454
v -2.737870 10.235153 -7.332705
v -3.817177 12.283132 -4.663733
v -3.156862 12.138070 -5.324049
v -2.940713 12.138070 -5.000559
v -1.544765 11.061384 -5.578780
v -3.798639 12.283132 -4.618977
v -2.864811 12.138070 -4.618977
v -2.022394 11.717084 -4.618977
v -1.353848 11.061384 -4.618977
v -3.803457 12.283132 -4.594754
v -1.011560 9.319270 -3.438313
v -2.940713 12.138070 -4.237394
v -2.162421 11.717084 -3.915015
v -1.148205 10.235153 -3.494913
v -1.680352 9.319270 -2.437395
v -3.156862 12.138070 -3.913904
v -2.088449 11.061384 -2.845492
v -1.784936 10.235153 -2.541978
v -3.837711 12.283132 -4.560500
v -2.681270 9.319270 -1.768602
v -3.480351 12.138070 -3.697756
v -2.902131 11.061384 -2.301807
v -2.737870 10.235153 -1.905247
v -3.861934 12.283132 -4.555681
v -3.861934 9.319270 -1.533754
v -3.861934 12.138070 -3.621854
v -3.861934 11.717084 -2.779437
v -3.861934 11.061384 -2.110890
v -3.861934 10.235153 -1.681657
v -5.042598 9.319270 -1.768602
v -4.565896 11.717084 -2.919464
v -3.906691 12.283132 -4.574220
v -5.162685 11.717084 -3.318225
v -3.920411 12.283132 -4.594754
v -4.783154 12.138070 -4.237394
v -5.561447 11.717084 -3.915015
v -6.575663 10.235153 -3.494913
v -5.701474 11.717084 -4.618977
v -6.179103 11.061384 -5.578780
v -6.575663 10.235153 -5.743040
v -3.906691 12.283132 -4.663733
v -5.635419 11.061384 -6.392461
v -4.243516 12.138070 -5.540197
v -6.947157 -0.025774 -4.618977
v -6.043516 -0.025774 -2.437395
v -2.681270 -0.025774 -1.768602
v -1.011560 -0.025774 -3.438313
v -3.886157 12.283132 -4.677454
v -5.042598 9.319270 -7.469351
v -4.565896 11.717084 -6.318490
v -4.821737 11.061384 -6.936146
v -4.985998 10.235153 -7.332705
v -6.043516 9.319270 -6.800559
v -4.567006 12.138070 -5.324049
v -5.162685 11.717084 -5.919728
v -5.938932 10.235153 -6.695975
v -3.920411 12.283132 -4.643199
v -6.712308 9.319270 -5.799641
v -4.783154 12.138070 -5.000559
v -5.561447 11.717084 -5.322938
v -3.925229 12.283132 -4.618977
v -6.947157 9.319270 -4.618977
v -4.859056 12.138070 -4.618977
v -6.370020 11.061384 -4.618977
v -6.799253 10.235153 -4.618977
v -6.712308 9.319270 -3.438313
v -6.179103 11.061384 -3.659173
v -6.043516 9.319270 -2.437395
v -4.567006 12.138070 -3.913904
v -5.635419 11.061384 -2.845492
v -5.938932 10.235153 -2.541978
v -3.886157 12.283132 -4.560500
v -4.243516 12.138070 -3.697756
v -4.821737 11.061384 -2.301807
v -4.985998 10.235153 -1.905247
v -3.157972 11.717084 -2.919464
v -3.817177 12.283132 -4.574220
v -2.561183 11.717084 -3.318225
v -1.544765 11.061384 -3.659173
v -0.776711 9.319270 -4.618977
v -0.924614 10.235153 -4.618977
v -3.803457 12.283132 -4.643199
v -1.011560 9.319270 -5.799641
v -2.162421 11.717084 -5.322938
v -1.148205 10.235153 -5.743040
v -1.680352 9.319270 -6.800559
v -2.561183 11.717084 -5.919728
v -2.088449 11.061384 -6.392461
v -1.784936 10.235153 -6.695975
v -2.681270 9.319270 -7.469351
v -3.480351 12.138070 -5.540197
v -3.157972 11.717084 -6.318490
v -2.902131 11.061384 -6.936146
vn -0.1951 -0.0000 -0.9808
vn 0.8315 -0.0000 -0.5556
vn 0.9808 -0.0000 -0.1951
vn 0.9808 -0.0000 0.1951
vn 0.8315 -0.0000 0.5556
vn 0.5556 -0.0000 0.8315
vn 0.1951 -0.0000 0.9808
vn -0.5556 -0.0000 0.8315
vn -0.8315 -0.0000 0.5556
vn -0.9808 -0.0000 0.1951
vn -0.9808 -0.0000 -0.1951
vn -0.8315 -0.0000 -0.5556
vn -0.5556 -0.0000 -0.8315
vn 0.1951 -0.0000 -0.9808
vn 0.5556 -0.0000 -0.8315
vn 0.1927 0.1564 -0.9687
vn 0.1738 0.4540 -0.8739
vn 0.0305 0.9877 -0.1534
vn 0.5487 0.1564 -0.8212
vn 0.4950 0.4540 -0.7408
vn 0.2522 0.8910 -0.3775
vn 0.0869 0.9877 -0.1301
vn 0.7408 0.4540 -0.4950
vn 0.5879 0.7071 -0.3928
vn 0.3775 0.8910 -0.2522
vn 0.1301 0.9877 -0.0869
vn 0.8739 0.4540 -0.1738
vn 0.6935 0.7071 -0.1379
vn 0.4453 0.8910 -0.0886
vn 0.1534 0.9877 -0.0305
vn 0.9687 0.1564 0.1927
vn 0.8739 0.4540 0.1738
vn 0.6935 0.7071 0.1379
vn 0.4453 0.8910 0.0886
vn 0.1534 0.9877 0.0305
vn 0.8212 0.1564 0.5487
vn 0.7408 0.4540 0.4950
vn 0.5879 0.7071 0.3928
vn 0.3775 0.8910 0.2522
vn 0.1301 0.9877 0.0869
vn 0.5487 0.1564 0.8212
vn 0.4950 0.4540 0.7408
vn 0.3928 0.7071 0.5879
vn 0.2522 0.8910 0.3775
vn 0.0869 0.9877 0.1301
vn 0.1927 0.1564 0.9687
vn 0.1738 0.4540 0.8739
vn 0.1379 0.7071 0.6935
vn 0.0886 0.8910 0.4453
vn 0.0306 0.9877 0.1534
vn -0.1927 0.1564 0.9687
vn -0.1380 0.7071 0.6935
vn -0.0886 0.8910 0.4453
vn -0.5487 0.1564 0.8212
vn -0.3928 0.7071 0.5879
vn -0.2522 0.8910 0.3775
vn -0.0869 0.9877 0.1301
vn -0.8212 0.1564 0.5487
vn -0.7408 0.4540 0.4950
vn -0.5879 0.7071 0.3928
vn -0.3775 0.8910 0.2522
vn -0.1301 0.9877 0.0869
vn -0.9687 0.1564 0.1927
vn -0.8739 0.4540 0.1738
vn -0.6935 0.7071 0.1379
vn -0.4453 0.8910 0.0886
vn -0.1534 0.9877 0.0305
vn -0.9687 0.1564 -0.1927
vn -0.8739 0.4540 -0.1738
vn -0.6935 0.7071 -0.1379
vn -0.4453 0.8910 -0.0886
vn -0.8212 0.1564 -0.5487
vn -0.7408 0.4540 -0.4950
vn -0.5879 0.7071 -0.3928
vn -0.1301 0.9877 -0.0869
vn -0.4950 0.4540 -0.7408
vn -0.3928 0.7071 -0.5879
vn -0.2522 0.8910 -0.3775
vn -0.0869 0.9877 -0.1301
vn -0.0886 0.8910 -0.4453
vn -0.0305 0.9877 -0.1534
vn -0.0000 1.0000 -0.0000
vn -0.1927 0.1564 -0.9687
vn -0.1738 0.4540 -0.8739
vn -0.1380 0.7071 -0.6935
vn -0.5487 0.1564 -0.8212
vn -0.3775 0.8910 -0.2522
vn -0.1534 0.9877 -0.0305
vn -0.4950 0.4540 0.7408
vn -0.1738 0.4540 0.8739
vn -0.0305 0.9877 0.1534
vn 0.9687 0.1564 -0.1927
vn 0.8212 0.1564 -0.5487
vn 0.3928 0.7071 -0.5879
vn 0.1380 0.7071 -0.6935
vn 0.0886 0.8910 -0.4453
vn -0.1951 -0.0000 0.9808
vn 0.1300 0.9877 0.0869
vn 0.1380 0.7071 0.6935
vn 0.0305 0.9877 0.1534
vn -0.1379 0.7071 0.6935
vn -0.0001 1.0000 -0.0000
vn 0.0002 1.0000 -0.0000
vn 0.0003 1.0000 -0.0000
vn -0.0003 1.0000 -0.0000
vn -0.1379 0.7071 -0.6935
vn -0.0306 0.9877 0.1534
vn 0.1379 0.7071 -0.6935
vt 0.459089 0.773325
vt 0.469537 0.715336
vt 0.459089 0.715336
vt 0.488842 0.773325
vt 0.494760 0.715336
vt 0.488842 0.715336
vt 0.494760 0.773325
vt 0.496838 0.715336
vt 0.496838 0.773325
vt 0.479985 0.715336
vt 0.479985 0.773325
vt 0.450232 0.715336
vt 0.450232 0.773325
vt 0.444313 0.715336
vt 0.444313 0.773325
vt 0.442235 0.715336
vt 0.442235 0.773325
vt 0.469537 0.773325
vt 0.658105 0.842983
vt 0.662671 0.858697
vt 0.662901 0.842983
vt 0.658105 0.858697
vt 0.662004 0.872873
vt 0.659655 0.891346
vt 0.658105 0.893834
vt 0.658204 0.893834
vt 0.666541 0.858697
vt 0.666966 0.842983
vt 0.665308 0.872873
vt 0.660964 0.884123
vt 0.660969 0.891346
vt 0.663388 0.884123
vt 0.658287 0.893834
vt 0.667516 0.872873
vt 0.669127 0.858697
vt 0.665008 0.884123
vt 0.661847 0.891346
vt 0.658343 0.893834
vt 0.668292 0.872873
vt 0.670035 0.858697
vt 0.665577 0.884123
vt 0.662155 0.891346
vt 0.658362 0.893834
vt 0.670636 0.842983
vt 0.669682 0.842983
vt 0.658105 0.872873
vt 0.658105 0.884123
vt 0.658105 0.891346
vt 0.653540 0.858697
vt 0.653310 0.842983
vt 0.654207 0.872873
vt 0.655246 0.884123
vt 0.656555 0.891346
vt 0.649670 0.858697
vt 0.649245 0.842983
vt 0.652822 0.884123
vt 0.650902 0.872873
vt 0.655242 0.891346
vt 0.657924 0.893834
vt 0.647084 0.858697
vt 0.646529 0.842983
vt 0.648694 0.872873
vt 0.651203 0.884123
vt 0.654364 0.891346
vt 0.657868 0.893834
vt 0.646175 0.858697
vt 0.645575 0.842983
vt 0.647919 0.872873
vt 0.650634 0.884123
vt 0.654055 0.891346
vt 0.657848 0.893834
vt 0.658007 0.893834
s 0
usemtl m_texture
f 68/1/1 1/2/1 12/3/1
f 105/4/2 4/5/2 3/6/2
f 102/7/3 5/8/3 4/5/3
f 99/9/4 66/5/4 5/8/4
f 30/7/5 6/6/5 66/5/5
f 34/4/6 65/10/6 6/6/6
f 39/11/7 7/2/7 65/10/7
f 49/1/8 64/12/8 8/3/8
f 87/13/9 9/14/9 64/12/9
f 85/15/10 63/16/10 9/14/10
f 81/17/11 10/14/11 63/16/11
f 77/15/12 11/12/12 10/14/12
f 72/13/13 12/3/13 11/12/13
f 14/18/14 2/10/14 1/2/14
f 109/11/15 3/6/15 2/10/15
f 14/19/16 20/20/16 109/21/16
f 18/22/17 112/23/17 20/20/17
f 110/24/18 13/25/18 19/26/18
f 109/21/19 108/27/19 105/28/19
f 108/27/20 112/23/20 107/29/20
f 111/30/21 22/31/21 106/32/21
f 110/24/22 21/33/22 22/31/22
f 108/27/23 24/34/23 104/35/23
f 107/29/24 103/36/24 24/34/24
f 103/36/25 22/31/25 23/37/25
f 22/31/26 101/38/26 23/37/26
f 104/35/27 28/39/27 100/40/27
f 24/34/28 27/41/28 28/39/28
f 103/36/29 26/42/29 27/41/29
f 23/37/30 25/43/30 26/42/30
f 99/44/31 33/35/31 30/45/31
f 33/35/32 28/39/32 98/34/32
f 98/34/33 27/41/33 32/36/33
f 32/36/34 26/42/34 31/37/34
f 31/37/35 25/43/35 29/38/35
f 30/45/36 37/27/36 34/28/36
f 33/35/37 36/29/37 37/27/37
f 98/34/38 97/32/38 36/29/38
f 32/36/39 35/31/39 97/32/39
f 31/37/40 96/33/40 35/31/40
f 34/28/41 42/20/41 39/21/41
f 37/27/42 41/23/42 42/20/42
f 41/23/43 97/32/43 95/30/43
f 95/30/44 35/31/44 40/24/44
f 40/24/45 96/33/45 38/26/45
f 39/21/46 48/22/46 44/19/46
f 42/20/47 47/46/47 48/22/47
f 41/23/48 46/47/48 47/46/48
f 95/30/49 45/48/49 46/47/49
f 45/48/50 38/26/50 43/25/50
f 44/19/51 94/49/51 49/50/51
f 93/51/52 46/47/52 50/52/52
f 46/47/53 92/53/53 50/52/53
f 49/50/54 90/54/54 87/55/54
f 93/51/55 52/56/55 89/57/55
f 50/52/56 88/58/56 52/56/56
f 92/53/57 51/59/57 88/58/57
f 87/55/58 56/60/58 85/61/58
f 90/54/59 86/62/59 56/60/59
f 89/57/60 55/63/60 86/62/60
f 52/56/61 54/64/61 55/63/61
f 54/64/62 51/59/62 53/65/62
f 85/61/63 84/66/63 81/67/63
f 56/60/64 83/68/64 84/66/64
f 86/62/65 57/69/65 83/68/65
f 55/63/66 82/70/66 57/69/66
f 82/70/67 53/65/67 80/71/67
f 81/67/68 59/60/68 77/61/68
f 84/66/69 58/62/69 59/60/69
f 83/68/70 79/63/70 58/62/70
f 79/63/71 82/70/71 78/64/71
f 77/61/72 75/54/72 72/55/72
f 59/60/73 61/57/73 75/54/73
f 58/62/74 74/56/74 61/57/74
f 73/58/75 76/65/75 60/59/75
f 75/54/76 70/51/76 71/49/76
f 61/57/77 69/52/77 70/51/77
f 74/56/78 62/53/78 69/52/78
f 73/58/79 67/72/79 62/53/79
f 69/52/80 15/48/80 16/47/80
f 62/53/81 13/25/81 15/48/81
f 25/43/82 21/33/82 51/59/82
f 68/50/83 18/22/83 14/19/83
f 70/51/84 18/22/84 71/49/84
f 69/52/85 17/46/85 70/51/85
f 75/54/86 68/50/86 72/55/86
f 79/63/87 73/58/87 74/56/87
f 80/71/88 78/64/88 82/70/88
f 93/51/89 90/54/89 94/49/89
f 47/46/90 94/49/90 48/22/90
f 45/48/91 91/72/91 92/53/91
f 104/35/92 99/44/92 102/45/92
f 108/27/93 102/45/93 105/28/93
f 111/30/94 107/29/94 112/23/94
f 16/47/95 112/23/95 17/46/95
f 15/48/96 111/30/96 16/47/96
f 44/18/97 8/3/97 7/2/97
f 68/1/1 14/18/1 1/2/1
f 105/4/2 102/7/2 4/5/2
f 102/7/3 99/9/3 5/8/3
f 99/9/4 30/7/4 66/5/4
f 30/7/5 34/4/5 6/6/5
f 34/4/6 39/11/6 65/10/6
f 39/11/7 44/18/7 7/2/7
f 49/1/8 87/13/8 64/12/8
f 87/13/9 85/15/9 9/14/9
f 85/15/10 81/17/10 63/16/10
f 81/17/11 77/15/11 10/14/11
f 77/15/12 72/13/12 11/12/12
f 72/13/13 68/1/13 12/3/13
f 14/18/14 109/11/14 2/10/14
f 109/11/15 105/4/15 3/6/15
f 14/19/16 18/22/16 20/20/16
f 18/22/17 17/46/17 112/23/17
f 110/24/18 15/48/18 13/25/18
f 109/21/19 20/20/19 108/27/19
f 108/27/20 20/20/20 112/23/20
f 111/30/21 110/24/21 22/31/21
f 110/24/22 19/26/22 21/33/22
f 108/27/23 107/29/23 24/34/23
f 107/29/24 106/32/24 103/36/24
f 103/36/25 106/32/25 22/31/25
f 22/31/26 21/33/26 101/38/26
f 104/35/27 24/34/27 28/39/27
f 24/34/28 103/36/28 27/41/28
f 103/36/29 23/37/29 26/42/29
f 23/37/30 101/38/30 25/43/30
f 99/44/31 100/40/31 33/35/31
f 33/35/32 100/40/32 28/39/32
f 98/34/33 28/39/33 27/41/33
f 32/36/34 27/41/34 26/42/34
f 31/37/35 26/42/35 25/43/35
f 30/45/36 33/35/36 37/27/36
f 33/35/37 98/34/37 36/29/37
f 98/34/38 32/36/38 97/32/38
f 32/36/39 31/37/39 35/31/39
f 31/37/98 29/38/98 96/33/98
f 34/28/41 37/27/41 42/20/41
f 37/27/42 36/29/42 41/23/42
f 41/23/43 36/29/43 97/32/43
f 95/30/44 97/32/44 35/31/44
f 40/24/45 35/31/45 96/33/45
f 39/21/46 42/20/46 48/22/46
f 42/20/47 41/23/47 47/46/47
f 41/23/99 95/30/99 46/47/99
f 95/30/49 40/24/49 45/48/49
f 45/48/100 40/24/100 38/26/100
f 44/19/51 48/22/51 94/49/51
f 93/51/101 47/46/101 46/47/101
f 46/47/53 45/48/53 92/53/53
f 49/50/54 94/49/54 90/54/54
f 93/51/55 50/52/55 52/56/55
f 50/52/56 92/53/56 88/58/56
f 92/53/57 91/72/57 51/59/57
f 87/55/58 90/54/58 56/60/58
f 90/54/59 89/57/59 86/62/59
f 89/57/60 52/56/60 55/63/60
f 52/56/61 88/58/61 54/64/61
f 54/64/62 88/58/62 51/59/62
f 85/61/63 56/60/63 84/66/63
f 56/60/64 86/62/64 83/68/64
f 86/62/65 55/63/65 57/69/65
f 55/63/66 54/64/66 82/70/66
f 82/70/67 54/64/67 53/65/67
f 81/67/68 84/66/68 59/60/68
f 84/66/69 83/68/69 58/62/69
f 83/68/70 57/69/70 79/63/70
f 79/63/71 57/69/71 82/70/71
f 77/61/72 59/60/72 75/54/72
f 59/60/73 58/62/73 61/57/73
f 58/62/74 79/63/74 74/56/74
f 73/58/75 78/64/75 76/65/75
f 75/54/76 61/57/76 70/51/76
f 61/57/77 74/56/77 69/52/77
f 74/56/78 73/58/78 62/53/78
f 73/58/79 60/59/79 67/72/79
f 69/52/80 62/53/80 15/48/80
f 62/53/81 67/72/81 13/25/81
f 21/33/102 19/26/102 13/25/102
f 13/25/82 67/72/82 60/59/82
f 60/59/103 76/65/103 80/71/103
f 80/71/104 53/65/104 51/59/104
f 51/59/82 91/72/82 43/25/82
f 43/25/82 38/26/82 96/33/82
f 96/33/105 29/38/105 25/43/105
f 25/43/105 101/38/105 21/33/105
f 21/33/82 13/25/82 60/59/82
f 60/59/82 80/71/82 21/33/82
f 80/71/82 51/59/82 21/33/82
f 51/59/82 43/25/82 96/33/82
f 96/33/82 25/43/82 51/59/82
f 68/50/83 71/49/83 18/22/83
f 70/51/84 17/46/84 18/22/84
f 69/52/106 16/47/106 17/46/106
f 75/54/86 71/49/86 68/50/86
f 79/63/87 78/64/87 73/58/87
f 80/71/88 76/65/88 78/64/88
f 93/51/89 89/57/89 90/54/89
f 47/46/90 93/51/90 94/49/90
f 45/48/107 43/25/107 91/72/107
f 104/35/92 100/40/92 99/44/92
f 108/27/93 104/35/93 102/45/93
f 111/30/94 106/32/94 107/29/94
f 16/47/108 111/30/108 112/23/108
f 15/48/96 110/24/96 111/30/96
f 44/18/97 49/1/97 8/3/97
o door_silo_sm
v -5.042598 -0.025774 -1.872504
v -4.885906 -0.025774 -1.273586
v -3.861934 2.199981 -1.273586
v -4.885906 1.843210 -1.273586
v -4.663702 2.034662 -1.273586
v -4.290116 2.171340 -1.273586
v -2.681270 -0.025774 -1.273586
v -2.837961 1.843210 -1.273586
v -3.060165 2.034662 -1.273586
v -3.433751 2.171340 -1.273586
v -3.861934 2.357023 -1.872504
v -5.042598 1.915034 -1.872504
v -4.744350 2.172005 -1.872504
v -4.322920 2.326187 -1.872504
v -2.681270 -0.025774 -1.872504
v -2.681270 1.915034 -1.872504
v -2.979517 2.172005 -1.872504
v -3.400947 2.326187 -1.872504
v -5.042598 1.915034 -1.273586
v -5.042598 -0.025774 -1.273586
v -4.744350 2.172005 -1.273586
v -4.322920 2.326187 -1.273586
v -3.861934 2.357023 -1.273586
v -2.681270 1.915034 -1.273586
v -2.837961 -0.025774 -1.273586
v -2.979517 2.172005 -1.273586
v -3.400947 2.326187 -1.273586
v -4.885906 -0.025774 -1.472281
v -2.837961 -0.025774 -1.472281
v -4.885906 1.843210 -1.472281
v -4.663702 2.034662 -1.472281
v -4.290116 2.171340 -1.472281
v -3.861934 2.199981 -1.472281
v -2.837961 1.843210 -1.472281
v -3.060165 2.034662 -1.472281
v -3.433751 2.171340 -1.472281
vn -0.6527 -0.7576 -0.0000
vn 0.0667 0.9978 -0.0000
vn 1.0000 -0.0000 -0.0000
vn -0.3436 0.9391 -0.0000
vn 0.6527 0.7576 -0.0000
vn -0.0667 0.9978 -0.0000
vn -1.0000 -0.0000 -0.0000
vn 0.3436 0.9391 -0.0000
vn -0.6527 0.7576 -0.0000
vn -0.0000 -0.0000 1.0000
vn 0.3436 -0.9391 -0.0000
vn -0.3436 -0.9391 -0.0000
vn 0.0667 -0.9978 -0.0000
vn -0.0667 -0.9978 -0.0000
vn 0.6527 -0.7576 -0.0000
vt 0.483418 0.696886
vt 0.487545 0.693329
vt 0.477088 0.702300
vt 0.468526 0.702873
vt 0.490456 0.658614
vt 0.490456 0.694663
vt 0.459963 0.702300
vt 0.452135 0.699436
vt 0.484916 0.699436
vt 0.446596 0.694663
vt 0.446596 0.658614
vt 0.449506 0.693329
vt 0.449506 0.658614
vt 0.453633 0.696886
vt 0.460572 0.699424
vt 0.468526 0.699956
vt 0.487545 0.658614
vt 0.476479 0.699424
vt 0.529474 0.700655
vt 0.522535 0.698116
vt 0.518408 0.694560
vt 0.518408 0.659845
vt 0.537428 0.701187
vt 0.556447 0.659845
vt 0.556447 0.694560
vt 0.552320 0.698116
vt 0.545381 0.700655
s 0
usemtl m_texture
f 147/73/109 120/74/109 121/73/109
f 130/75/110 135/76/110 139/75/110
f 127/77/111 136/78/111 119/77/111
f 126/79/112 133/80/112 134/79/112
f 128/78/113 138/81/113 136/78/113
f 123/76/114 134/79/114 135/76/114
f 124/82/115 132/83/115 131/82/115
f 129/81/116 139/75/116 138/81/116
f 125/80/117 131/82/117 133/80/117
f 116/84/118 132/83/118 114/85/118
f 133/80/118 116/84/118 117/86/118
f 134/79/118 117/86/118 118/87/118
f 135/76/118 118/87/118 115/88/118
f 119/77/118 120/74/118 137/89/118
f 120/74/118 138/81/118 121/73/118
f 121/73/118 139/75/118 122/90/118
f 122/90/118 135/76/118 115/88/118
f 144/91/118 143/92/118 142/93/118
f 143/86/119 118/87/119 117/86/119
f 148/90/120 121/73/120 122/90/120
f 144/87/121 115/88/121 118/87/121
f 140/85/111 116/84/111 114/85/111
f 145/88/122 122/90/122 115/88/122
f 146/74/115 137/89/115 120/74/115
f 142/84/123 117/86/123 116/84/123
f 147/73/109 146/74/109 120/74/109
f 130/75/110 123/76/110 135/76/110
f 127/77/111 128/78/111 136/78/111
f 126/79/112 125/80/112 133/80/112
f 128/78/113 129/81/113 138/81/113
f 123/76/114 126/79/114 134/79/114
f 124/82/115 113/83/115 132/83/115
f 129/81/116 130/75/116 139/75/116
f 125/80/117 124/82/117 131/82/117
f 116/84/118 131/82/118 132/83/118
f 133/80/118 131/82/118 116/84/118
f 134/79/118 133/80/118 117/86/118
f 135/76/118 134/79/118 118/87/118
f 119/77/118 136/78/118 120/74/118
f 120/74/118 136/78/118 138/81/118
f 121/73/118 138/81/118 139/75/118
f 122/90/118 139/75/118 135/76/118
f 142/93/118 140/94/118 145/95/118
f 140/94/118 141/96/118 145/95/118
f 141/96/118 146/97/118 145/95/118
f 146/97/118 147/98/118 148/99/118
f 145/95/118 146/97/118 148/99/118
f 145/95/118 144/91/118 142/93/118
f 143/86/119 144/87/119 118/87/119
f 148/90/120 147/73/120 121/73/120
f 144/87/121 145/88/121 115/88/121
f 140/85/111 142/84/111 116/84/111
f 145/88/122 148/90/122 122/90/122
f 146/74/115 141/89/115 137/89/115
f 142/84/123 143/86/123 117/86/123
